<?xml version="1.0" encoding="UTF-8"?>
<svg xmlns="http://www.w3.org/2000/svg" version="1.1" viewBox="0 0 24 24">
  <defs>
    <style>
      .cls-1 {
        fill: none;
        stroke: #1d2944;
        stroke-linecap: round;
        stroke-linejoin: round;
        stroke-width: 2px;
      }
    </style>
  </defs>
  <!-- Generator: Adobe Illustrator 28.7.2, SVG Export Plug-In . SVG Version: 1.2.0 Build 154)  -->
  <g>
    <g id="Layer_1">
      <g id="Layer_1-2" data-name="Layer_1">
        <path class="cls-1" d="M9,19c-5,1.5-5-2.5-7-3M16,22v-3.9c0-1-.3-1.9-.9-2.6,3.1-.4,6.4-1.5,6.4-7s-.5-2.7-1.5-3.8c.5-1.2.4-2.6,0-3.8,0,0-1.2-.4-3.9,1.5-2.3-.6-4.7-.6-7,0-2.7-1.8-3.9-1.5-3.9-1.5-.5,1.2-.5,2.5,0,3.8-1,1-1.5,2.4-1.5,3.8,0,5.4,3.3,6.6,6.4,7-.7.7-1,1.6-.9,2.6v3.9"/>
      </g>
    </g>
  </g>
</svg>